<svg width="20" height="20" viewBox="0 0 20 20" fill="none" xmlns="http://www.w3.org/2000/svg">
<path d="M2.04469 6.61623C2.2791 6.38189 2.59699 6.25024 2.92844 6.25024C3.2599 6.25024 3.57778 6.38189 3.81219 6.61623L9.99969 12.8037L16.1872 6.61623C16.4229 6.38853 16.7387 6.26254 17.0664 6.26538C17.3942 6.26823 17.7077 6.39969 17.9395 6.63145C18.1712 6.86321 18.3027 7.17673 18.3055 7.50448C18.3084 7.83222 18.1824 8.14797 17.9547 8.38373L10.8834 15.455C10.649 15.6893 10.3311 15.821 9.99969 15.821C9.66824 15.821 9.35035 15.6893 9.11594 15.455L2.04469 8.38373C1.81036 8.14932 1.67871 7.83143 1.67871 7.49998C1.67871 7.16852 1.81036 6.85064 2.04469 6.61623Z" fill="white"/>
</svg>
