<svg width="21" height="20" viewBox="0 0 21 20" fill="none" xmlns="http://www.w3.org/2000/svg">
<path d="M10.0709 1.85792C10.0709 0.831818 10.9027 0 11.9288 0H18.5955C19.6216 0 20.4534 0.831818 20.4534 1.85792C20.4534 2.88402 19.6216 3.71583 18.5955 3.71583H11.9288C10.9027 3.71583 10.0709 2.88402 10.0709 1.85792Z" fill="#FFFE2E"/>
<path d="M0.0166016 18.1421C0.0166016 17.116 0.84842 16.2842 1.87452 16.2842H6.35538C7.38147 16.2842 8.21329 17.116 8.21329 18.1421C8.21329 19.1682 7.38148 20 6.35538 20H1.87452C0.848421 20 0.0166016 19.1682 0.0166016 18.1421Z" fill="#FFFE2E"/>
<path d="M11.5703 0H5.92369C2.65981 0 0.0126588 2.64351 0.00816865 5.90739C0.00366218 9.1831 2.662 11.8388 5.9377 11.831L14.4874 11.8108C15.7216 11.8079 16.7249 12.8051 16.7294 14.0393C16.7339 15.2777 15.7312 16.2841 14.4927 16.2841H6.83662C4.94394 16.2841 4.26314 18.7833 5.89432 19.7432C6.17991 19.9113 6.50525 19.9999 6.83662 19.9999H14.4743C17.7368 19.9999 20.3804 17.3527 20.3759 14.0902C20.3714 10.834 17.7305 8.19669 14.4743 8.19669H5.91825C4.68102 8.19669 3.678 7.19382 3.67782 5.95659C3.67763 4.71911 4.68076 3.71583 5.91825 3.71583H11.5703C13.583 3.71583 14.1589 0.962375 12.3149 0.155736C12.0801 0.0530233 11.8266 0 11.5703 0Z" fill="#FBE601"/>
</svg>
