<svg width="137" height="25" viewBox="0 0 137 25" fill="none" xmlns="http://www.w3.org/2000/svg">
<path d="M10.0709 3.85792C10.0709 2.83182 10.9027 2 11.9288 2H18.5955C19.6216 2 20.4534 2.83182 20.4534 3.85792C20.4534 4.88402 19.6216 5.71583 18.5955 5.71583H11.9288C10.9027 5.71583 10.0709 4.88402 10.0709 3.85792Z" fill="#FFFE2E"/>
<path d="M0.0166016 20.1421C0.0166016 19.116 0.84842 18.2842 1.87452 18.2842H6.35538C7.38147 18.2842 8.21329 19.116 8.21329 20.1421C8.21329 21.1682 7.38148 22 6.35538 22H1.87452C0.848421 22 0.0166016 21.1682 0.0166016 20.1421Z" fill="#FFFE2E"/>
<path d="M11.5703 2H5.92369C2.65981 2 0.0126588 4.64351 0.00816865 7.90739C0.00366218 11.1831 2.662 13.8388 5.9377 13.831L14.4874 13.8108C15.7216 13.8079 16.7249 14.8051 16.7294 16.0393C16.7339 17.2777 15.7312 18.2841 14.4927 18.2841H6.83662C4.94394 18.2841 4.26314 20.7833 5.89432 21.7432C6.17991 21.9113 6.50525 21.9999 6.83662 21.9999H14.4743C17.7368 21.9999 20.3804 19.3527 20.3759 16.0902C20.3714 12.834 17.7305 10.1967 14.4743 10.1967H5.91825C4.68102 10.1967 3.678 9.19382 3.67782 7.95659C3.67763 6.71911 4.68076 5.71583 5.91825 5.71583H11.5703C13.583 5.71583 14.1589 2.96237 12.3149 2.15574C12.0801 2.05302 11.8266 2 11.5703 2Z" fill="#FBE601"/>
<path d="M34.634 19.216C33.626 19.216 32.66 19.084 31.736 18.82C30.812 18.544 30.068 18.19 29.504 17.758L30.494 15.562C31.034 15.946 31.67 16.264 32.402 16.516C33.146 16.756 33.896 16.876 34.652 16.876C35.228 16.876 35.69 16.822 36.038 16.714C36.398 16.594 36.662 16.432 36.83 16.228C36.998 16.024 37.082 15.79 37.082 15.526C37.082 15.19 36.95 14.926 36.686 14.734C36.422 14.53 36.074 14.368 35.642 14.248C35.21 14.116 34.73 13.996 34.202 13.888C33.686 13.768 33.164 13.624 32.636 13.456C32.12 13.288 31.646 13.072 31.214 12.808C30.782 12.544 30.428 12.196 30.152 11.764C29.888 11.332 29.756 10.78 29.756 10.108C29.756 9.388 29.948 8.734 30.332 8.146C30.728 7.546 31.316 7.072 32.096 6.724C32.888 6.364 33.878 6.184 35.066 6.184C35.858 6.184 36.638 6.28 37.406 6.472C38.174 6.652 38.852 6.928 39.44 7.3L38.54 9.514C37.952 9.178 37.364 8.932 36.776 8.776C36.188 8.608 35.612 8.524 35.048 8.524C34.484 8.524 34.022 8.59 33.662 8.722C33.302 8.854 33.044 9.028 32.888 9.244C32.732 9.448 32.654 9.688 32.654 9.964C32.654 10.288 32.786 10.552 33.05 10.756C33.314 10.948 33.662 11.104 34.094 11.224C34.526 11.344 35 11.464 35.516 11.584C36.044 11.704 36.566 11.842 37.082 11.998C37.61 12.154 38.09 12.364 38.522 12.628C38.954 12.892 39.302 13.24 39.566 13.672C39.842 14.104 39.98 14.65 39.98 15.31C39.98 16.018 39.782 16.666 39.386 17.254C38.99 17.842 38.396 18.316 37.604 18.676C36.824 19.036 35.834 19.216 34.634 19.216ZM47.4985 19.144C46.6825 19.144 45.9685 18.964 45.3565 18.604C44.7445 18.244 44.2645 17.698 43.9165 16.966C43.5805 16.222 43.4125 15.286 43.4125 14.158C43.4125 13.018 43.5745 12.082 43.8985 11.35C44.2225 10.618 44.6905 10.072 45.3025 9.712C45.9145 9.352 46.6465 9.172 47.4985 9.172C48.4105 9.172 49.2265 9.382 49.9465 9.802C50.6785 10.21 51.2545 10.786 51.6745 11.53C52.1065 12.274 52.3225 13.15 52.3225 14.158C52.3225 15.178 52.1065 16.06 51.6745 16.804C51.2545 17.548 50.6785 18.124 49.9465 18.532C49.2265 18.94 48.4105 19.144 47.4985 19.144ZM41.7745 22.492V9.316H44.4565V11.296L44.4025 14.176L44.5825 17.038V22.492H41.7745ZM47.0125 16.84C47.4805 16.84 47.8945 16.732 48.2545 16.516C48.6265 16.3 48.9205 15.994 49.1365 15.598C49.3645 15.19 49.4785 14.71 49.4785 14.158C49.4785 13.594 49.3645 13.114 49.1365 12.718C48.9205 12.322 48.6265 12.016 48.2545 11.8C47.8945 11.584 47.4805 11.476 47.0125 11.476C46.5445 11.476 46.1245 11.584 45.7525 11.8C45.3805 12.016 45.0865 12.322 44.8705 12.718C44.6545 13.114 44.5465 13.594 44.5465 14.158C44.5465 14.71 44.6545 15.19 44.8705 15.598C45.0865 15.994 45.3805 16.3 45.7525 16.516C46.1245 16.732 46.5445 16.84 47.0125 16.84ZM54.2023 19V5.644H57.0103V19H54.2023ZM64.4223 19.144C63.3183 19.144 62.3463 18.928 61.5063 18.496C60.6783 18.064 60.0363 17.476 59.5803 16.732C59.1243 15.976 58.8963 15.118 58.8963 14.158C58.8963 13.186 59.1183 12.328 59.5623 11.584C60.0183 10.828 60.6363 10.24 61.4163 9.82C62.1963 9.388 63.0783 9.172 64.0623 9.172C65.0103 9.172 65.8623 9.376 66.6183 9.784C67.3863 10.18 67.9923 10.756 68.4363 11.512C68.8803 12.256 69.1023 13.15 69.1023 14.194C69.1023 14.302 69.0963 14.428 69.0843 14.572C69.0723 14.704 69.0603 14.83 69.0483 14.95H61.1823V13.312H67.5723L66.4923 13.798C66.4923 13.294 66.3903 12.856 66.1863 12.484C65.9823 12.112 65.7003 11.824 65.3403 11.62C64.9803 11.404 64.5603 11.296 64.0803 11.296C63.6003 11.296 63.1743 11.404 62.8023 11.62C62.4423 11.824 62.1603 12.118 61.9563 12.502C61.7523 12.874 61.6503 13.318 61.6503 13.834V14.266C61.6503 14.794 61.7643 15.262 61.9923 15.67C62.2323 16.066 62.5623 16.372 62.9823 16.588C63.4143 16.792 63.9183 16.894 64.4943 16.894C65.0103 16.894 65.4603 16.816 65.8443 16.66C66.2403 16.504 66.6003 16.27 66.9243 15.958L68.4183 17.578C67.9743 18.082 67.4163 18.472 66.7443 18.748C66.0723 19.012 65.2983 19.144 64.4223 19.144ZM75.7778 19.144C74.6738 19.144 73.7018 18.928 72.8618 18.496C72.0338 18.064 71.3918 17.476 70.9358 16.732C70.4798 15.976 70.2518 15.118 70.2518 14.158C70.2518 13.186 70.4738 12.328 70.9178 11.584C71.3738 10.828 71.9918 10.24 72.7718 9.82C73.5518 9.388 74.4338 9.172 75.4178 9.172C76.3658 9.172 77.2178 9.376 77.9738 9.784C78.7418 10.18 79.3478 10.756 79.7918 11.512C80.2358 12.256 80.4578 13.15 80.4578 14.194C80.4578 14.302 80.4518 14.428 80.4398 14.572C80.4278 14.704 80.4158 14.83 80.4038 14.95H72.5378V13.312H78.9278L77.8478 13.798C77.8478 13.294 77.7458 12.856 77.5418 12.484C77.3378 12.112 77.0558 11.824 76.6958 11.62C76.3358 11.404 75.9158 11.296 75.4358 11.296C74.9558 11.296 74.5298 11.404 74.1578 11.62C73.7978 11.824 73.5158 12.118 73.3118 12.502C73.1078 12.874 73.0058 13.318 73.0058 13.834V14.266C73.0058 14.794 73.1198 15.262 73.3478 15.67C73.5878 16.066 73.9178 16.372 74.3378 16.588C74.7698 16.792 75.2738 16.894 75.8498 16.894C76.3658 16.894 76.8158 16.816 77.1998 16.66C77.5958 16.504 77.9558 16.27 78.2798 15.958L79.7738 17.578C79.3298 18.082 78.7718 18.472 78.0998 18.748C77.4278 19.012 76.6538 19.144 75.7778 19.144ZM88.2133 9.172C88.9813 9.172 89.6653 9.328 90.2653 9.64C90.8773 9.94 91.3573 10.408 91.7053 11.044C92.0533 11.668 92.2273 12.472 92.2273 13.456V19H89.4193V13.888C89.4193 13.108 89.2453 12.532 88.8973 12.16C88.5613 11.788 88.0813 11.602 87.4573 11.602C87.0133 11.602 86.6113 11.698 86.2513 11.89C85.9033 12.07 85.6273 12.352 85.4233 12.736C85.2313 13.12 85.1353 13.612 85.1353 14.212V19H82.3273V9.316H85.0093V11.998L84.5053 11.188C84.8533 10.54 85.3513 10.042 85.9993 9.694C86.6473 9.346 87.3853 9.172 88.2133 9.172ZM98.4122 19L104.028 6.4H106.908L112.542 19H109.482L104.874 7.876H106.026L101.4 19H98.4122ZM101.22 16.3L101.994 14.086H108.474L109.266 16.3H101.22ZM116.549 12.07H122.597V14.41H116.549V12.07ZM116.765 19H113.849V6.4H123.371V8.74H116.765V19ZM123.677 19L129.095 11.53V13.654L123.911 6.4H127.223L130.805 11.458L129.419 11.476L132.947 6.4H136.115L130.967 13.528V11.44L136.421 19H133.055L129.347 13.654H130.679L127.025 19H123.677Z" fill="#FFFEFF"/>
</svg>
